HIERARCHY
ROOT Hips
{
	OFFSET -0.265452 88.605217 4.257980
	CHANNELS 6 Xposition Yposition Zposition Zrotation Yrotation Xrotation 
	JOINT Spine
	{
		OFFSET 0.000000 8.814246 -2.080107
		CHANNELS 3 Zrotation Yrotation Xrotation
		JOINT Spine1
		{
			OFFSET 0.000000 8.844141 0.000000
			CHANNELS 3 Zrotation Yrotation Xrotation
			JOINT Spine2
			{
				OFFSET 0.000000 11.682268 -0.000000
				CHANNELS 3 Zrotation Yrotation Xrotation
				JOINT Spine3
				{
					OFFSET -0.000000 11.746700 -0.000000
					CHANNELS 3 Zrotation Yrotation Xrotation
					JOINT Neck
					{
						OFFSET -0.000000 17.658264 -0.000000
						CHANNELS 3 Zrotation Yrotation Xrotation
						JOINT Neck1
						{
							OFFSET 0.000000 5.101515 0.000000
							CHANNELS 3 Zrotation Yrotation Xrotation
							JOINT Head
							{
								OFFSET 0.000000 5.101515 0.000000
								CHANNELS 3 Zrotation Yrotation Xrotation
								JOINT HeadEnd
								{
									OFFSET 0.000000 11.655085 0.000000
									CHANNELS 3 Zrotation Yrotation Xrotation
									End Site
									{
										OFFSET 0.000000 0.000000 0.000000
									}
								}
							}
						}
					}
					JOINT RightShoulder
					{
						OFFSET -2.625389 11.175210 0.000000
						CHANNELS 3 Zrotation Yrotation Xrotation
						JOINT RightArm
						{
							OFFSET 0.000000 10.434715 0.000000
							CHANNELS 3 Zrotation Yrotation Xrotation
							JOINT RightForeArm
							{
								OFFSET 0.000000 29.628420 -0.000000
								CHANNELS 3 Zrotation Yrotation Xrotation
								JOINT RightHand
								{
									OFFSET -0.000000 22.857611 0.000000
									CHANNELS 3 Zrotation Yrotation Xrotation
									JOINT RightHandThumb1
									{
										OFFSET -2.867323 3.959563 2.944291
										CHANNELS 3 Zrotation Yrotation Xrotation
										JOINT RightHandThumb2
										{
											OFFSET -0.000000 3.350399 0.000000
											CHANNELS 3 Zrotation Yrotation Xrotation
											JOINT RightHandThumb3
											{
												OFFSET -0.000000 3.756509 0.000000
												CHANNELS 3 Zrotation Yrotation Xrotation
												JOINT RightHandThumb4
												{
													OFFSET 0.000000 3.147345 -0.000000
													CHANNELS 3 Zrotation Yrotation Xrotation
													End Site
													{
														OFFSET 0.000000 0.000000 0.000000
													}
												}
											}
										}
									}
									JOINT RightHandIndex1
									{
										OFFSET -0.086752 10.030893 2.345280
										CHANNELS 3 Zrotation Yrotation Xrotation
										JOINT RightHandIndex2
										{
											OFFSET 0.000000 4.061090 -0.000000
											CHANNELS 3 Zrotation Yrotation Xrotation
											JOINT RightHandIndex3
											{
												OFFSET 0.000000 3.248873 0.000000
												CHANNELS 3 Zrotation Yrotation Xrotation
												JOINT RightHandIndex4
												{
													OFFSET 0.000000 2.639709 -0.000000
													CHANNELS 3 Zrotation Yrotation Xrotation
													End Site
													{
														OFFSET 0.000000 0.000000 0.000000
													}
												}
											}
										}
									}
									JOINT RightHandMiddle1
									{
										OFFSET 0.104102 9.502952 0.006768
										CHANNELS 3 Zrotation Yrotation Xrotation
										JOINT RightHandMiddle2
										{
											OFFSET -0.000000 4.568727 0.000000
											CHANNELS 3 Zrotation Yrotation Xrotation
											JOINT RightHandMiddle3
											{
												OFFSET 0.000000 3.654981 -0.000000
												CHANNELS 3 Zrotation Yrotation Xrotation
												JOINT RightHandMiddle4
												{
													OFFSET 0.000000 2.741236 0.000000
													CHANNELS 3 Zrotation Yrotation Xrotation
													End Site
													{
														OFFSET 0.000000 0.000000 0.000000
													}
												}
											}
										}
									}
									JOINT RightHandRing1
									{
										OFFSET 0.086752 8.921708 -2.267442
										CHANNELS 3 Zrotation Yrotation Xrotation
										JOINT RightHandRing2
										{
											OFFSET 0.000000 4.061090 -0.000000
											CHANNELS 3 Zrotation Yrotation Xrotation
											JOINT RightHandRing3
											{
												OFFSET 0.000000 3.654981 -0.000000
												CHANNELS 3 Zrotation Yrotation Xrotation
												JOINT RightHandRing4
												{
													OFFSET 0.000000 2.741236 -0.000000
													CHANNELS 3 Zrotation Yrotation Xrotation
													End Site
													{
														OFFSET 0.000000 0.000000 0.000000
													}
												}
											}
										}
									}
									JOINT RightHandPinky1
									{
										OFFSET -0.173504 7.976997 -4.467199
										CHANNELS 3 Zrotation Yrotation Xrotation
										JOINT RightHandPinky2
										{
											OFFSET 0.000000 3.350399 -0.000000
											CHANNELS 3 Zrotation Yrotation Xrotation
											JOINT RightHandPinky3
											{
												OFFSET -0.000000 2.842763 -0.000000
												CHANNELS 3 Zrotation Yrotation Xrotation
												JOINT RightHandPinky4
												{
													OFFSET 0.000000 2.639709 -0.000000
													CHANNELS 3 Zrotation Yrotation Xrotation
													End Site
													{
														OFFSET 0.000000 0.000000 0.000000
													}
												}
											}
										}
									}
									JOINT RightForeArmEnd
									{
										OFFSET 0.000000 0.000000 0.000000
										CHANNELS 3 Zrotation Yrotation Xrotation
										End Site
										{
											OFFSET 0.000000 0.000000 0.000000
										}
									}
								}
								JOINT RightArmEnd
								{
									OFFSET 0.000000 0.000000 0.000000
									CHANNELS 3 Zrotation Yrotation Xrotation
									End Site
									{
										OFFSET 0.000000 0.000000 0.000000
									}
								}
							}
						}
					}
					JOINT LeftShoulder
					{
						OFFSET 2.625389 11.175210 0.000000
						CHANNELS 3 Zrotation Yrotation Xrotation
						JOINT LeftArm
						{
							OFFSET 0.000000 10.813635 -0.000000
							CHANNELS 3 Zrotation Yrotation Xrotation
							JOINT LeftForeArm
							{
								OFFSET 0.000000 28.724781 -0.000000
								CHANNELS 3 Zrotation Yrotation Xrotation
								JOINT LeftHand
								{
									OFFSET 0.644384 25.716167 -0.328871
									CHANNELS 3 Zrotation Yrotation Xrotation
									JOINT LeftHandThumb1
									{
										OFFSET 2.867323 3.959563 2.944291
										CHANNELS 3 Zrotation Yrotation Xrotation
										JOINT LeftHandThumb2
										{
											OFFSET -0.000000 3.350399 0.000000
											CHANNELS 3 Zrotation Yrotation Xrotation
											JOINT LeftHandThumb3
											{
												OFFSET 0.000000 3.756509 0.000000
												CHANNELS 3 Zrotation Yrotation Xrotation
												JOINT LeftHandThumb4
												{
													OFFSET 0.000000 3.100000 0.000000
													CHANNELS 3 Zrotation Yrotation Xrotation
													End Site
													{
														OFFSET 0.000000 0.000000 0.000000
													}
												}
											}
										}
									}
									JOINT LeftHandIndex1
									{
										OFFSET 0.086752 10.030893 2.345280
										CHANNELS 3 Zrotation Yrotation Xrotation
										JOINT LeftHandIndex2
										{
											OFFSET -0.000000 4.061090 -0.000000
											CHANNELS 3 Zrotation Yrotation Xrotation
											JOINT LeftHandIndex3
											{
												OFFSET 0.000000 3.248873 0.000000
												CHANNELS 3 Zrotation Yrotation Xrotation
												JOINT LeftHandIndex4
												{
													OFFSET 0.000000 2.639709 0.000000
													CHANNELS 3 Zrotation Yrotation Xrotation
													End Site
													{
														OFFSET 0.000000 0.000000 0.000000
													}
												}
											}
										}
									}
									JOINT LeftHandMiddle1
									{
										OFFSET -0.104102 9.502952 0.006768
										CHANNELS 3 Zrotation Yrotation Xrotation
										JOINT LeftHandMiddle2
										{
											OFFSET -0.000000 4.568727 -0.000000
											CHANNELS 3 Zrotation Yrotation Xrotation
											JOINT LeftHandMiddle3
											{
												OFFSET 0.000000 3.654981 0.000000
												CHANNELS 3 Zrotation Yrotation Xrotation
												JOINT LeftHandMiddle4
												{
													OFFSET 0.000000 2.741236 -0.000000
													CHANNELS 3 Zrotation Yrotation Xrotation
													End Site
													{
														OFFSET 0.000000 0.000000 0.000000
													}
												}
											}
										}
									}
									JOINT LeftHandRing1
									{
										OFFSET -0.086752 8.921708 -2.267442
										CHANNELS 3 Zrotation Yrotation Xrotation
										JOINT LeftHandRing2
										{
											OFFSET -0.000000 4.061090 0.000000
											CHANNELS 3 Zrotation Yrotation Xrotation
											JOINT LeftHandRing3
											{
												OFFSET 0.000000 3.654981 0.000000
												CHANNELS 3 Zrotation Yrotation Xrotation
												JOINT LeftHandRing4
												{
													OFFSET -0.000000 2.741236 -0.000000
													CHANNELS 3 Zrotation Yrotation Xrotation
													End Site
													{
														OFFSET 0.000000 0.000000 0.000000
													}
												}
											}
										}
									}
									JOINT LeftHandPinky1
									{
										OFFSET 0.173504 7.976997 -4.467199
										CHANNELS 3 Zrotation Yrotation Xrotation
										JOINT LeftHandPinky2
										{
											OFFSET 0.000000 3.350399 0.000000
											CHANNELS 3 Zrotation Yrotation Xrotation
											JOINT LeftHandPinky3
											{
												OFFSET -0.000000 2.842763 0.000000
												CHANNELS 3 Zrotation Yrotation Xrotation
												JOINT LeftHandPinky4
												{
													OFFSET -0.000000 2.639709 -0.000000
													CHANNELS 3 Zrotation Yrotation Xrotation
													End Site
													{
														OFFSET 0.000000 0.000000 0.000000
													}
												}
											}
										}
									}
									JOINT LeftForeArmEnd
									{
										OFFSET 0.000000 0.000000 0.000000
										CHANNELS 3 Zrotation Yrotation Xrotation
										End Site
										{
											OFFSET 0.000000 0.000000 0.000000
										}
									}
								}
								JOINT LeftArmEnd
								{
									OFFSET 0.000000 0.000000 0.000000
									CHANNELS 3 Zrotation Yrotation Xrotation
									End Site
									{
										OFFSET 0.000000 0.000000 0.000000
									}
								}
							}
						}
					}
				}
			}
		}
	}
	JOINT RightUpLeg
	{
		OFFSET -11.289943 0.000000 -0.000000
		CHANNELS 3 Zrotation Yrotation Xrotation
		JOINT RightLeg
		{
			OFFSET 0.000000 -38.200325 0.000000
			CHANNELS 3 Zrotation Yrotation Xrotation
			JOINT RightFoot
			{
				OFFSET -0.000000 -39.900856 -0.000000
				CHANNELS 3 Zrotation Yrotation Xrotation
				JOINT RightToeBase
				{
					OFFSET -0.000000 -0.000000 15.261641
					CHANNELS 3 Zrotation Yrotation Xrotation
					JOINT RightToeBaseEnd
					{
						OFFSET -0.000000 0.000000 7.370709
						CHANNELS 3 Zrotation Yrotation Xrotation
						End Site
						{
							OFFSET 0.000000 0.000000 0.000000
						}
					}
				}
				JOINT RightLegEnd
				{
					OFFSET 0.000000 0.000000 0.000000
					CHANNELS 3 Zrotation Yrotation Xrotation
					End Site
					{
						OFFSET 0.000000 0.000000 0.000000
					}
				}
			}
			JOINT RightUpLegEnd
			{
				OFFSET 0.000000 0.000000 0.000000
				CHANNELS 3 Zrotation Yrotation Xrotation
				End Site
				{
					OFFSET 0.000000 0.000000 0.000000
				}
			}
		}
	}
	JOINT LeftUpLeg
	{
		OFFSET 11.315661 0.000000 0.000000
		CHANNELS 3 Zrotation Yrotation Xrotation
		JOINT LeftLeg
		{
			OFFSET -0.000000 -38.200325 -0.000000
			CHANNELS 3 Zrotation Yrotation Xrotation
			JOINT LeftFoot
			{
				OFFSET -0.000000 -39.900856 -0.000000
				CHANNELS 3 Zrotation Yrotation Xrotation
				JOINT LeftToeBase
				{
					OFFSET -0.000000 0.000000 15.261641
					CHANNELS 3 Zrotation Yrotation Xrotation
					JOINT LeftToeBaseEnd
					{
						OFFSET 0.000000 0.000000 7.539996
						CHANNELS 3 Zrotation Yrotation Xrotation
						End Site
						{
							OFFSET 0.000000 0.000000 0.000000
						}
					}
				}
				JOINT LeftLegEnd
				{
					OFFSET 0.000000 0.000000 0.000000
					CHANNELS 3 Zrotation Yrotation Xrotation
					End Site
					{
						OFFSET 0.000000 0.000000 0.000000
					}
				}
			}
			JOINT LeftUpLegEnd
			{
				OFFSET 0.000000 0.000000 0.000000
				CHANNELS 3 Zrotation Yrotation Xrotation
				End Site
				{
					OFFSET 0.000000 0.000000 0.000000
				}
			}
		}
	}
}
MOTION
Frames: 4
Frame Time: 0.016667
-0.351783 88.184418 3.786841 0.361903 3.915779 -12.348203 1.119519 0.105876 7.901596 0.465124 0.013485 1.666982 -1.291465 0.548902 6.103047 -1.066248 0.205612 4.762469 0.700162 0.020454 4.021402 0.232790 0.683481 -3.357564 -0.202079 -1.067096 -19.069572 0.000000 0.000000 0.000000 88.204483 0.057598 10.339689 59.995831 -15.251998 5.228766 -1.037227 15.707143 90.787834 13.390589 26.740023 2.072272 8.917892 -1.679557 40.679443 -0.000003 0.000016 -21.652178 0.000005 0.000054 -15.110820 0.000008 -0.000001 -0.000017 4.252997 0.098157 -2.312410 3.181370 -0.066937 0.049413 3.120917 -0.047728 0.019072 -0.000010 0.000029 -0.000011 4.792247 0.011116 -5.497124 2.976413 -0.043285 0.010069 3.065072 -0.019204 0.020016 -0.000003 0.000047 0.000004 7.151652 -0.007000 -10.293904 4.074437 0.078192 -0.093870 4.175036 0.037762 -0.058014 0.000001 -0.000196 -0.000005 8.839813 -0.026843 -16.156801 5.230351 0.225172 -0.201286 5.168650 0.113836 -0.190435 -0.000234 0.000009 -0.000014 0.000000 0.000000 0.000000 0.000000 0.000000 0.000000 -85.243011 -0.345331 4.174067 -71.665848 2.916211 -7.519695 0.045782 -17.177866 100.184441 -30.136610 -41.172188 9.484300 -6.412011 1.219747 41.871788 0.000013 0.000019 -15.687926 0.000015 -0.000014 -11.022144 0.000624 0.000012 -0.000512 6.301532 0.085798 2.050582 -1.272386 -0.044919 -0.055780 -1.482925 -0.023597 -0.055730 0.000006 0.000072 -0.000006 3.960588 0.032500 -2.914589 -1.746667 -0.030630 -0.040247 -1.527160 -0.008301 -0.032895 0.000159 -0.000004 0.000032 -3.155616 -0.007459 -10.445197 -4.069270 0.072467 0.036373 -3.716440 0.019357 0.027424 0.000388 0.000012 0.000007 -8.869336 -0.012119 -18.455301 -7.117428 0.140278 0.223665 -7.017056 0.052256 0.161141 0.000043 0.000007 -0.000050 0.000000 0.000000 0.000000 0.000000 0.000000 0.000000 -3.536897 -11.341905 18.009083 -0.103447 -0.778612 5.757308 -0.044604 -8.257758 15.219610 -1.124105 1.073539 -17.140396 0.000000 0.000000 0.000000 0.000000 0.000000 0.000000 0.000000 0.000000 0.000000 0.506853 -4.429143 10.672902 0.116973 0.523501 12.042090 1.863846 -0.601431 15.660129 0.270312 -0.697988 -19.930159 0.000000 0.000000 0.000000 0.000000 0.000000 0.000000 0.000000 0.000000 0.000000 
-0.348038 88.176582 3.782306 0.349269 3.935265 -12.360931 1.113305 0.115617 7.875000 0.447608 0.020125 1.669037 -1.289843 0.537230 6.076965 -1.069809 0.200521 4.761642 0.696952 -0.039160 4.066161 0.238721 0.646240 -3.360713 -0.188108 -1.065038 -19.150305 0.000000 0.000000 0.000000 88.184120 0.061263 10.393360 59.763653 -15.220776 5.378711 -1.042241 15.689610 90.848061 13.544959 26.622478 2.164709 8.877597 -1.676273 40.698463 -0.000003 0.000015 -21.546501 0.000005 0.000054 -15.032634 0.000008 -0.000001 -0.000017 4.024871 0.098071 -2.293761 3.072370 -0.066588 0.042373 3.008691 -0.047881 0.011909 -0.000010 0.000029 -0.000011 4.554727 0.010584 -5.489617 2.868032 -0.043178 0.007524 2.957358 -0.019196 0.018063 -0.000003 0.000047 0.000004 6.871964 -0.007090 -10.321827 3.953123 0.078532 -0.091669 4.063627 0.038104 -0.056120 0.000002 -0.000168 -0.000006 8.505453 -0.028178 -16.194452 5.102303 0.227849 -0.200578 5.045277 0.115735 -0.188837 -0.000231 0.000010 -0.000014 0.000000 0.000000 0.000000 0.000000 0.000000 0.000000 -85.213043 -0.360881 4.263736 -71.455582 3.069076 -7.220148 0.046709 -17.198771 100.282150 -30.554939 -40.909142 9.531878 -6.384933 1.213444 41.884731 0.000013 0.000019 -15.631828 0.000017 -0.000014 -10.984137 0.000641 0.000011 -0.000566 6.469806 0.084989 2.083160 -1.273614 -0.044823 -0.052050 -1.490314 -0.023540 -0.050994 0.000007 0.000056 -0.000006 4.145726 0.031729 -2.890290 -1.751701 -0.030467 -0.038891 -1.531408 -0.008197 -0.031575 0.000207 -0.000004 0.000028 -2.971692 -0.008055 -10.454799 -4.071134 0.072452 0.035925 -3.715138 0.019388 0.026948 0.000330 0.000012 0.000007 -8.731106 -0.013499 -18.494543 -7.127100 0.139856 0.225307 -7.024549 0.052439 0.161505 0.000049 0.000007 -0.000050 0.000000 0.000000 0.000000 0.000000 0.000000 0.000000 -3.538848 -11.349254 18.010763 -0.104874 -0.779076 5.748375 -0.029165 -8.257899 15.235242 -1.124314 1.074898 -17.141460 0.000000 0.000000 0.000000 0.000000 0.000000 0.000000 0.000000 0.000000 0.000000 0.507102 -4.438098 10.680007 0.116838 0.525093 12.033958 1.865833 -0.623066 15.633768 0.272779 -0.693739 -19.914696 0.000000 0.000000 0.000000 0.000000 0.000000 0.000000 0.000000 0.000000 0.000000 
-0.343492 88.168434 3.781253 0.335604 3.964027 -12.377030 1.105106 0.124625 7.850924 0.427556 0.025312 1.667339 -1.286414 0.511808 6.054242 -1.073852 0.190251 4.776349 0.705128 -0.102239 4.117924 0.244736 0.609537 -3.365220 -0.173057 -1.062970 -19.239742 0.000000 0.000000 0.000000 88.162117 0.060458 10.427886 59.526897 -15.213177 5.512732 -1.046015 15.661879 90.981682 13.581077 26.461954 2.277326 8.819902 -1.672003 40.724087 -0.000003 0.000014 -21.401587 0.000005 0.000054 -14.926272 0.000008 -0.000001 -0.000016 3.720619 0.097510 -2.238080 2.915511 -0.066084 0.036566 2.847274 -0.047751 0.005745 -0.000011 0.000029 -0.000010 4.239565 0.010143 -5.460696 2.712159 -0.042973 0.005529 2.803378 -0.019186 0.016516 -0.000003 0.000047 0.000004 6.528830 -0.007064 -10.346392 3.786606 0.078636 -0.089768 3.905917 0.038365 -0.054677 0.000002 -0.000154 -0.000006 8.120446 -0.028501 -16.244270 4.934311 0.229816 -0.200347 4.882610 0.117170 -0.188181 -0.000230 0.000010 -0.000014 0.000000 0.000000 0.000000 0.000000 0.000000 0.000000 -85.173843 -0.377614 4.350051 -71.266724 3.211078 -6.918311 0.048360 -17.197250 100.339630 -30.966990 -40.810352 9.683550 -6.349857 1.206910 41.900871 0.000013 0.000019 -15.555223 0.000019 -0.000014 -10.932204 0.000679 0.000011 -0.000626 6.670750 0.083867 2.143376 -1.262996 -0.044475 -0.047154 -1.485906 -0.023197 -0.045461 0.000007 0.000027 -0.000006 4.351636 0.030862 -2.842037 -1.746150 -0.030185 -0.037149 -1.526255 -0.007985 -0.029950 0.000253 -0.000004 0.000024 -2.793086 -0.008746 -10.442289 -4.065288 0.071908 0.034777 -3.705673 0.019178 0.026124 0.000263 0.000011 0.000007 -8.616819 -0.015021 -18.514763 -7.132234 0.138077 0.223694 -7.028134 0.051708 0.159656 0.000065 0.000008 -0.000050 0.000000 0.000000 0.000000 0.000000 0.000000 0.000000 -3.540029 -11.353128 18.013758 -0.106016 -0.778538 5.738745 -0.015629 -8.259570 15.250300 -1.124583 1.075900 -17.140678 0.000000 0.000000 0.000000 0.000000 0.000000 0.000000 0.000000 0.000000 0.000000 0.503766 -4.447261 10.696655 0.116911 0.528661 12.022550 1.867632 -0.649501 15.599174 0.275775 -0.690807 -19.897198 0.000000 0.000000 0.000000 0.000000 0.000000 0.000000 0.000000 0.000000 0.000000 
-0.338560 88.160316 3.784052 0.320521 4.000111 -12.397236 1.095829 0.131852 7.830673 0.406468 0.028283 1.661744 -1.282158 0.472823 6.034916 -1.077692 0.174851 4.803625 0.725254 -0.164351 4.171272 0.251006 0.577797 -3.372188 -0.158103 -1.061333 -19.333317 0.000000 0.000000 0.000000 88.139717 0.055234 10.442980 59.290337 -15.224576 5.626731 -1.048954 15.623242 91.182877 13.494072 26.255775 2.405372 8.741540 -1.665948 40.758339 -0.000003 0.000013 -21.208239 0.000005 0.000054 -14.785747 0.000008 -0.000001 -0.000016 3.325403 0.096788 -2.136468 2.710060 -0.065577 0.033377 2.635987 -0.047470 0.002009 -0.000011 0.000029 -0.000010 3.830486 0.009876 -5.403387 2.507381 -0.042767 0.004677 2.601231 -0.019234 0.015883 -0.000003 0.000046 0.000004 6.103062 -0.006952 -10.363520 3.571429 0.078588 -0.089015 3.698330 0.038637 -0.054360 0.000003 -0.000151 -0.000007 7.668719 -0.027843 -16.305197 4.722551 0.231204 -0.202997 4.676967 0.118278 -0.190377 -0.000226 0.000010 -0.000014 0.000000 0.000000 0.000000 0.000000 0.000000 0.000000 -85.127213 -0.395011 4.430935 -71.105080 3.329587 -6.629128 0.049630 -17.169950 100.368843 -31.360516 -40.888966 9.947953 -6.307519 1.200145 41.920086 0.000013 0.000018 -15.458638 0.000021 -0.000014 -10.866772 0.000732 0.000011 -0.000681 6.898858 0.082560 2.229319 -1.238098 -0.043934 -0.041699 -1.466384 -0.022608 -0.039833 0.000007 -0.000013 -0.000006 4.573158 0.029929 -2.771105 -1.726620 -0.029840 -0.035317 -1.508324 -0.007703 -0.028318 0.000288 -0.000004 0.000022 -2.620525 -0.009486 -10.408080 -4.047780 0.070939 0.033433 -3.683930 0.018806 0.025330 0.000189 0.000011 0.000007 -8.522368 -0.016585 -18.514973 -7.127748 0.135253 0.220471 -7.022771 0.050281 0.156875 0.000089 0.000008 -0.000049 0.000000 0.000000 0.000000 0.000000 0.000000 0.000000 -3.539465 -11.356421 18.020641 -0.106878 -0.777369 5.727272 -0.006939 -8.261406 15.264818 -1.124877 1.076626 -17.137367 0.000000 0.000000 0.000000 0.000000 0.000000 0.000000 0.000000 0.000000 0.000000 0.499394 -4.456014 10.724273 0.117192 0.533781 12.008215 1.868929 -0.680329 15.559079 0.278971 -0.689192 -19.880020 0.000000 0.000000 0.000000 0.000000 0.000000 0.000000 0.000000 0.000000 0.000000 
